inDegrees=no
nColumns=32
nRows=17
DataType=double
version=3
OpenSimVersion=4.5
endheader
time	pelvis_tilt	pelvis_list	pelvis_rotation	pelvis_tz	pelvis_ty	pelvis_tx	hip_flexion_r	hip_adduction_r	hip_rotation_r	knee_angle_r	ankle_angle_r	subtalar_angle_r	mtp_angle_r	hip_flexion_l	hip_adduction_l	hip_rotation_l	knee_angle_l	ankle_angle_l	subtalar_angle_l	mtp_angle_l	lumbar_extension	lumbar_bending	lumbar_rotation	arm_flex_r	arm_add_r	arm_rot_r	elbow_flex_r	arm_flex_l	arm_add_l	arm_rot_l	elbow_flex_l
0.78	-0.1315432428738349	-0.0628845695823803	-0.008314407629621334	0.003600650000000011	0.86357336	0.94900498	0.2668553144740602	0.1405571122068631	-0.02622279027824283	-0.2445002591648372	0.16188745486711	0.07511296148815548	0	0.5275109274514527	-0.1201901747130892	-0.1107628967426992	-1.076939819379037	-0.03585493272730383	0.03861238679011009	0	0.003740923883426004	0.05982104090611774	0.05242547558523317	-0.1592964490153421	-0.1148337894329146	-0.6487701201711128	0.603417571831899	-0.09516219512739253	-0.1150614601289215	-0.5490777685085302	0.7077185805761033
0.7899999999999998	-0.1345336156053227	-0.06137232304937855	-0.008301409384906408	0.00365774000000002	0.86404636	0.96009217	0.2491334215418215	0.1387703027617342	-0.02951822777127647	-0.2319688665194844	0.16631299305081	0.07908225227942697	0	0.5535634119919445	-0.1196494263322608	-0.1160135602742306	-1.046950743139876	-0.03559677566712068	0.03791422873484065	0	0.005308204244442758	0.05794231910645321	0.0571808757615723	-0.152318533479544	-0.1186540292805987	-0.6467616872467693	0.6083861473957414	-0.1078225714441921	-0.1166320658657621	-0.5542522728528214	0.7019265009007717
0.8	-0.1362447856141757	-0.05851355364019079	-0.008017112047573768	0.003882850000000021	0.86441865	0.97135524	0.2302568051628952	0.1362929754401364	-0.02769692084628432	-0.2205326007845817	0.1752947233697508	0.0870685857212387	0	0.5745753949029215	-0.1171396584013233	-0.1214052355882816	-1.009125206278035	-0.02963328999847759	0.03977175787406283	0	0.006282392578633331	0.05333231777224166	0.05980431297243492	-0.1449343004069597	-0.1200804572076564	-0.6419905822487548	0.61381611575718	-0.1197062018928282	-0.1186067076449906	-0.5641507431209588	0.6941905024770345
0.8099999999999998	-0.136922836927131	-0.06061786927092855	-0.008346920344732318	0.003944050000000004	0.86425737	0.9821256399999999	0.2167333452050273	0.138544322068042	-0.03091149828227061	-0.2206349879071561	0.1800866243148686	0.08761086527941986	0	0.5945989971603626	-0.1198378583614914	-0.1267724335322381	-0.9696507369677153	-0.02528433459342711	0.04012538758592274	0	0.004001883069723243	0.05524433853417206	0.06818644973855295	-0.137044115582844	-0.124756752604577	-0.6410398359553465	0.6177686744259785	-0.1258954134370926	-0.1192378857231551	-0.5666779777834515	0.69116282851092
0.8200000000000001	-0.1260919714632094	-0.05208912195431531	-0.0065999670545197	0.003566360000000018	0.86535171	0.9943220999999999	0.1800707699184764	0.1286062591803561	-0.03364817210593676	-0.2028092964045769	0.2018066754351409	0.1058474746576276	0	0.5920983819105555	-0.1099546612951053	-0.1368236279639067	-0.9145769579421678	-0.004219117045869044	0.05765547040416358	0	-0.008236973194373616	0.04612617739839917	0.06527096815475046	-0.1300445101422997	-0.1276510867319647	-0.6283968804679428	0.6243220387957619	-0.132416946841044	-0.1160240013574148	-0.5987320200812906	0.6682708231809198
0.8299999999999998	-0.1276744678081216	-0.05732752931643934	-0.007355126596905641	0.003624509999999997	0.86445499	1.00516115	0.1682451172131965	0.1342986140583542	-0.03471859737148353	-0.2046942151702836	0.2056871118632592	0.1069120663346825	0	0.6087564085245764	-0.1147841936332912	-0.1413824578152461	-0.8646101187730396	-0.001264455612886076	0.05848310658265684	0	-0.009066923853987947	0.05150058529749565	0.07341858782180483	-0.1227638860972991	-0.1319179401036722	-0.6276733456744152	0.6282511386686171	-0.1392375823803645	-0.1166759357637085	-0.6011430882467643	0.6654980976616914
0.8400000000000001	-0.1300151960740333	-0.05794977633973551	-0.007572705942586215	0.003311010000000003	0.8635608	1.01720318	0.1453435741824329	0.1347940632911117	-0.03202860586932047	-0.185667758958948	0.2201075237508634	0.1113994088961236	0	0.6195994668663893	-0.1122384162437595	-0.1453334065923425	-0.8054337995255489	0.005331394434214007	0.06664574864764897	0	-0.004589289162912277	0.05356662804978897	0.07081925238618177	-0.117512853254098	-0.1344333498114167	-0.6249598761776873	0.6356727418584806	-0.1568639918398851	-0.1149046204790142	-0.6087128759987744	0.6516368093303466
0.8499999999999999	-0.1269542588450218	-0.05875436831421267	-0.007494993629791447	0.003074080000000007	0.86283256	1.0291276	0.1207056760336228	0.1356054677330285	-0.02773556627564783	-0.1747237647358338	0.2312582012602622	0.1181528866092883	0	0.6220622932944299	-0.1097259903509041	-0.1506891668701119	-0.7408202562338532	0.01436421350742043	0.0817439685750431	0	-0.007981875870902124	0.05575921380510304	0.07250951754747323	-0.1126783231655991	-0.1369933135861745	-0.6202054991133557	0.6414085990680847	-0.1664249323603805	-0.1141415225620024	-0.6190704954437547	0.6382879151098679
0.8600000000000001	-0.1094246583133528	-0.05982951150251488	-0.01418738711898437	0.003521000000000024	0.86320786	1.04114568	0.08167914983915085	0.1367408258790006	-0.02522379941911802	-0.1657092147220396	0.2407768341270246	0.1308836684609158	0	0.6056850625808526	-0.1135291226557931	-0.168014272461412	-0.674085699823342	0.02256238122573813	0.1097103377145734	0	-0.02930281661700145	0.0566473588034337	0.08196475220182162	-0.1079279549480263	-0.1454099317751266	-0.5953023498390848	0.6469875916695731	-0.1584451267990371	-0.1096612805235572	-0.6660894286513024	0.61174710664329
0.8699999999999999	-0.1126598674236261	-0.06237189740926399	-0.02094072636837696	0.003685710000000009	0.86132948	1.05267454	0.06668661169236006	0.1392622992096325	-0.01921564117560553	-0.1603232052703393	0.255152313036635	0.1364823347627986	0	0.6132789542024973	-0.1150826892667452	-0.1779454833609875	-0.6086426064250953	0.02014648931927765	0.1248829683583629	0	-0.02579565323240838	0.06083616279632117	0.08922817305998407	-0.101592659170837	-0.1496624746686982	-0.5918639546959483	0.651470319405939	-0.1687109845113961	-0.1082415487267077	-0.6733086176302316	0.6037771108795403
0.8800000000000001	-0.1127051884225854	-0.06381374844335845	-0.02902470301568463	0.003887250000000009	0.85962914	1.06438617	0.04917284176850591	0.1398742050131305	-0.01419587370853878	-0.1569382397170613	0.2653731545187949	0.1466257822372727	0	0.614612266719566	-0.116389327218724	-0.1936265814738923	-0.5410179455351023	0.015989659060155	0.1482268045251195	0	-0.02624062928852747	0.06331651756603944	0.09928867760148151	-0.09668446466873083	-0.1546155935966849	-0.5884185658439662	0.6546397844440844	-0.1776881959983706	-0.1078992713344344	-0.6810481349868067	0.5935352631381022
0.8899999999999999	-0.1012160417243347	-0.06579884972335844	-0.03732235787591443	0.003948900000000005	0.85878766	1.07664353	0.02019722063011244	0.1396497144815537	-0.01768269161550842	-0.1565571739529587	0.2801229304566027	0.1638292521678099	0	0.5994299435643085	-0.1183190920450277	-0.2141856024002248	-0.4711444474516022	0.02215468749683675	0.1906327471730458	0	-0.03968590565175601	0.06677686301704654	0.1116284343166959	-0.09319698179131619	-0.160036250801097	-0.5776572198034743	0.6551889004569457	-0.1772184394084659	-0.1055391519478202	-0.7036570521009237	0.5734362925021051
0.9000000000000001	-0.1021558558464297	-0.07003038849680761	-0.04143506816137424	0.003761399999999998	0.85657616	1.08892797	0.000672399962569729	0.1423318307090659	-0.01828198916049007	-0.1483055029918882	0.2929179461842901	0.1761671921698059	0	0.5990485163425179	-0.117901195644918	-0.2231704261407319	-0.404430534097352	0.01327956834632597	0.2182908943082666	0	-0.03758188558213685	0.07245185623231047	0.1176585660809581	-0.0916146093937245	-0.1631246192900814	-0.5741694723341452	0.6579735296452713	-0.18553527345889	-0.1049860530936059	-0.7169208735631393	0.562619372385703
0.9099999999999999	-0.09594287342725676	-0.07332379928937598	-0.04946214639760867	0.003495120000000018	0.85493146	1.10132947	-0.02475708685796167	0.1427791016986184	-0.01840397074551073	-0.1444577267355296	0.3041510545470631	0.1912294504606273	0	0.5895971819754489	-0.1184382071012849	-0.2383393903713618	-0.3409912498971943	-4.752583913058119e-05	0.2512230915143308	0	-0.04497205190151329	0.07814385698300338	0.1294769953920627	-0.0895135146704646	-0.1705457868457635	-0.5685343073578788	0.6604522722543594	-0.1900037099157419	-0.1023039995234139	-0.7344098800574345	0.5497096942857461
0.9200000000000002	-0.08963715832508717	-0.07643457410076626	-0.05348297287584719	0.002850910000000012	0.85304614	1.11376932	-0.05056254622277238	0.1428334334491672	-0.02210331250857382	-0.139852021005673	0.3151558808249921	0.2029565184176412	0	0.5791735868158153	-0.1156747702243357	-0.247165236084562	-0.2788204511006326	-0.008774905660986841	0.2809445072009988	0	-0.05207468884019184	0.08329003358633724	0.1379447515535653	-0.08903276721866127	-0.1766272473470634	-0.5652627649931014	0.6649546956822684	-0.1924372937012311	-0.1002199179206365	-0.7558982285965948	0.5345753416795126
0.9299999999999999	-0.09140638788205867	-0.08381651050214493	-0.05616092730496631	0.002077860000000015	0.85035166	1.12580454	-0.06649990335029872	0.1481931774409542	-0.01990259735866981	-0.1370992233067782	0.3231233976976052	0.2123583767146733	0	0.5794057639519509	-0.1159916159004794	-0.2456501925553927	-0.2243635192547612	-0.01780380071043601	0.2991466496426053	0	-0.05171738835184914	0.09383534312108303	0.144168066307815	-0.08680065656257362	-0.1828787652257619	-0.5644945426148726	0.6679629404686167	-0.197372720750189	-0.09913558831507086	-0.7652935619802185	0.527782367688974
0.9399999999999997	-0.07570784439417164	-0.08102428811148028	-0.05918590287412957	0.00111965	0.84928391	1.13876218	-0.09950877915358834	0.1397343205387746	-0.03307828911843776	-0.1376998956476116	0.3350207335187255	0.240437518733025	0	0.5564293839953885	-0.1075374047157027	-0.262022497600755	-0.1712075041715805	-0.02932984984725266	0.3216399093722462	0	-0.06940621637047464	0.09157246876800096	0.151269750296722	-0.08625897024180519	-0.187512240540281	-0.5583356811245699	0.6724251024668078	-0.1941433755598029	-0.09647537247901265	-0.8003875597770524	0.5101007225728851
